<svg width="33" height="32" viewBox="0 0 33 32" fill="none" xmlns="http://www.w3.org/2000/svg">
  <g clip-path="url(#clip0)">
    <rect x="-2" y="-1" width="37" height="35" fill="#EBEBEB"/>
    <path d="M23.9131 24.0476C25.5939 24.0476 26.9565 22.6618 26.9565 20.9523C26.9565 19.2429 25.5939 17.8572 23.9131 17.8572C22.2321 17.8572 20.8696 19.2429 20.8696 20.9523C20.8696 22.6618 22.2321 24.0476 23.9131 24.0476ZM23.9131 24.0476C21.2237 24.0476 19.0435 26.2648 19.0435 29H28.7827C28.7827 26.2648 26.6024 24.0476 23.9131 24.0476ZM12.9565 8.57142C12.9565 11.6485 10.5038 14.1428 7.47827 14.1428C4.4527 14.1428 2 11.6485 2 8.57142C2 5.49442 4.4527 3 7.47827 3C10.5038 3 12.9565 5.49442 12.9565 8.57142ZM2 17.8572H12.9565V29H2V17.8572ZM23.9131 3L30 14.1428H17.8261L23.9131 3Z" stroke="#333333" stroke-width="2" stroke-linecap="square"/>
  </g>
  <defs>
    <clipPath id="clip0">
    <rect width="33" height="32" rx="4" fill="white"/>
    </clipPath>
  </defs>
</svg>
